<?xml version="1.0" encoding="UTF-8"?><svg id="Layer_1" xmlns="http://www.w3.org/2000/svg" viewBox="0 0 512 512"><defs><style>.cls-1{stroke:#fff;stroke-width:3.31px;}.cls-1,.cls-2{fill:none;stroke-linecap:round;}.cls-3{opacity:.2;}.cls-4{fill:#f9c818;}.cls-4,.cls-5,.cls-6,.cls-7,.cls-8,.cls-9,.cls-10,.cls-11,.cls-12,.cls-13{fill-rule:evenodd;}.cls-5{fill:#94b1eb;}.cls-6{fill:#e1e1e1;}.cls-7{fill:#ff2e52;}.cls-8{fill:#9fddff;}.cls-9{fill:#ec7068;}.cls-10{fill:#fff5f5;}.cls-11{fill:#fff;}.cls-12{fill:#f5f5f5;}.cls-2{stroke:#e0e0e0;stroke-linejoin:round;stroke-width:2.21px;}</style></defs><g id="Master_Stickers_Conversation" class="cls-3"><g id="Writing"><path id="Fill-6" class="cls-6" d="m300.03,171.95h164.8c5.23,0,9.47,4.24,9.47,9.47v58.3c0,5.23-4.24,9.47-9.47,9.47h-5.05l.26.14-11.57,11.57c-2.28,2.28-5.99,2.28-8.27,0l-11.57-11.57.26-.14h-128.86c-5.23,0-9.47-4.24-9.47-9.47v-58.3c0-5.23,4.24-9.47,9.47-9.47"/><path id="Fill-22" class="cls-11" d="m363.3,214.03c0,2.04-1.66,3.7-3.7,3.7s-3.7-1.65-3.7-3.7,1.65-3.7,3.7-3.7,3.7,1.66,3.7,3.7"/><path id="Fill-24" class="cls-11" d="m386.12,214.03c0,2.04-1.66,3.7-3.7,3.7s-3.7-1.65-3.7-3.7,1.65-3.7,3.7-3.7,3.7,1.66,3.7,3.7"/><path id="Fill-26" class="cls-11" d="m408.94,214.03c0,2.04-1.66,3.7-3.7,3.7s-3.7-1.65-3.7-3.7,1.65-3.7,3.7-3.7,3.7,1.66,3.7,3.7"/></g><g id="Text-Message"><path id="Fill-20" class="cls-9" d="m302.98,106.85H35.44c-8.49,0-15.37,6.88-15.37,15.37v94.64c0,8.49,6.88,15.37,15.37,15.37h8.2l-.43.23,18.78,18.78c3.71,3.71,9.72,3.71,13.43,0l18.78-18.78-.43-.23h209.2c8.49,0,15.37-6.88,15.37-15.37v-94.64c0-8.49-6.88-15.37-15.37-15.37"/><line id="Stroke-28" class="cls-1" x1="44.36" y1="136.72" x2="294.05" y2="136.72"/><line id="Stroke-30" class="cls-1" x1="44.36" y1="158.59" x2="294.05" y2="158.59"/><line id="Stroke-32" class="cls-1" x1="44.36" y1="180.47" x2="294.05" y2="180.47"/><line id="Stroke-34" class="cls-1" x1="44.36" y1="202.35" x2="294.05" y2="202.35"/></g><g id="Text-Message-2"><path id="Fill-36" class="cls-12" d="m210.58,272.93H60.08c-4.78,0-8.65,3.87-8.65,8.65v53.24c0,4.78,3.87,8.65,8.65,8.65h4.61l-.24.13,10.57,10.57c2.09,2.09,5.47,2.09,7.56,0l10.56-10.57-.24-.13h117.68c4.78,0,8.65-3.87,8.65-8.65v-53.24c0-4.78-3.87-8.65-8.65-8.65"/><line id="Stroke-38" class="cls-2" x1="65.1" y1="289.73" x2="205.56" y2="289.73"/><line id="Stroke-40" class="cls-2" x1="65.1" y1="302.03" x2="205.56" y2="302.03"/><line id="Stroke-42" class="cls-2" x1="65.1" y1="314.34" x2="205.56" y2="314.34"/><line id="Stroke-44" class="cls-2" x1="65.1" y1="326.65" x2="205.56" y2="326.65"/></g><g id="Text-Message-3"><path id="Fill-46" class="cls-5" d="m209.02,267.99h267.54c8.49,0,15.37,6.88,15.37,15.37v94.64c0,8.49-6.88,15.37-15.37,15.37h-8.2l.43.23-18.78,18.78c-3.71,3.71-9.72,3.71-13.43,0l-18.78-18.78.43-.23h-209.2c-8.49,0-15.37-6.88-15.37-15.37v-94.64c0-8.49,6.88-15.37,15.37-15.37"/><line id="Stroke-48" class="cls-1" x1="467.64" y1="297.85" x2="217.95" y2="297.85"/><line id="Stroke-50" class="cls-1" x1="467.64" y1="319.73" x2="217.95" y2="319.73"/><line id="Stroke-52" class="cls-1" x1="467.64" y1="341.61" x2="217.95" y2="341.61"/><line id="Stroke-54" class="cls-1" x1="467.64" y1="363.49" x2="217.95" y2="363.49"/></g></g><g id="Master_Office_Supplies_Brainstorming"><path id="Path_194" class="cls-8" d="m65.77,292.34v-14.93l143.49-46.86s21.71,10.08,53.36,28.91c31.66,18.83,182.46,2.05,182.46,2.05v13.71l-213.23,116.61-166.08-99.5Z"/><path id="Path_194_Copy_2" class="cls-13" d="m209.87,230.01l.64.3c14.12,6.58,31.36,15.91,51.72,27.98l1.26.75c20.95,12.46,81.71,13.14,182.1,1.98l.64-.07v14.67l-213.82,116.94-166.64-99.83v-15.66l144.1-47.06Zm-.07,1.22l-142.88,46.66v14.2l165.52,99.16,212.65-116.29v-12.74l-2.37.26c-97.89,10.74-157.55,10.07-179.16-2.09l-.65-.38c-20.67-12.29-38.15-21.78-52.44-28.48l-.67-.31Z"/><path id="Path_194_2" class="cls-10" d="m66.54,276.88l131.76-56.3s100.82-33.74,132.47-14.91c31.66,18.83,114.32,55.85,114.32,55.85l-213.23,114.45-165.32-99.09Z"/><path id="Path_194_Copy_3" class="cls-13" d="m198.64,220.12l.04-.02c67.37-22.54,111.65-27.53,132.95-14.86,21.08,12.54,59.17,31.15,114.26,55.82l1.05.47-214.53,115.15-166.55-99.82,132.78-56.74Zm245.13,41.24c-53.69-24.08-91.05-42.33-112.09-54.76l-.64-.38c-20.91-12.44-64.94-7.48-131.99,14.96h.02s-130.72,55.85-130.72,55.85l164.08,98.35,211.93-113.75-.6-.27Z"/><path id="Path_194_Copy" class="cls-11" d="m66.42,276.88l226.23-108.53s43.46,18.39,75.12,37.22c18.75,11.16,49.89,31.37,68.39,40.58,5.22,2.6,14.17,5.4,14.17,5.4l-202.23,109.19s-13.95,13.57-60.74-12.79c-46.8-26.36-120.94-71.07-120.94-71.07Z"/><path id="Path_194_Copy_4" class="cls-13" d="m380.86,212.57l18.46,11.38c.42.26.83.51,1.24.76l2.91,1.78c14.88,9.08,25.47,15.2,33.52,19.21l.18.09c3.43,1.69,8.07,3.45,13.9,5.28l1.28.4-203.34,109.79-.23.22c-9.58,8.85-29.63,4.63-60.2-12.45l-.94-.53c-30.58-17.23-69.91-40.33-118-69.3l-3.85-2.32,227.41-109.1,1.97.84c28.26,12.03,52.75,24.2,73.45,36.52,3.34,1.98,7.09,4.27,12.22,7.43Zm-87.62-43.54l-225.05,107.97,4.9,2.95c46.3,27.87,84.36,50.22,114.19,67.04l.94.53c30.99,17.46,51.02,21.68,60.06,12.88l.06-.06,201.13-108.6-.27-.09c-5.17-1.67-9.34-3.29-12.52-4.85l-.19-.09c-7.93-3.95-18.27-9.91-32.7-18.7l-1.83-1.11-3.23-1.98-19.98-12.32c-3.72-2.28-6.69-4.09-9.34-5.68l-1.99-1.18c-20.95-12.41-45.75-24.68-74.41-36.81l.24.1Z"/><path id="Path_195" d="m307.61,201.51c2.35-.08,3.52-.07,4.96.1,1.92.22,3.4.98,4.63,2.24.88.91,1.49,1.85,2.47,3.69l.5.93.16.31c1.52,2.81,2.65,4.17,4.57,5.1l.32.15c2.06.98,3.96,1.63,7.68,2.74l2.39.7c2.78.82,4.28,1.33,6.02,2.04.96.4,1.69.89,2.92,1.91l.95.79,1,.83c1.39,1.16,2.75,2.33,5.07,4.37l3.22,2.82.86.75-.75.85-1.43-1.24-3.61-3.17c-1.97-1.72-3.19-2.77-4.53-3.88l-.7-.58-.46-.39c-1.33-1.12-2.03-1.62-2.9-2l-.39-.16c-1.71-.69-3.28-1.2-6.31-2.09l-1.69-.5c-3.97-1.17-5.91-1.85-8.17-2.96-2.23-1.09-3.48-2.63-5.15-5.73l-.58-1.08c-.94-1.75-1.5-2.63-2.29-3.44-1.04-1.08-2.28-1.71-3.94-1.9l-.27-.03c-1.28-.13-2.43-.14-4.68-.06l-1.33.05c-.78.03-1.27.04-1.81.04h-.15s0-1.13,0-1.13h.45c.42,0,.85-.02,1.45-.04l1.53-.06Z"/><path id="Path_196" class="cls-13" d="m266.65,221.18c-.44-3.02-3.2-3.91-7.46-3.41-1.07.13-2.19.34-3.46.63-.32.07-.99.24-1.58.38-.44.11-.83.2-1,.24l-.41.09-.26,1.08-.04.02c-.4.25-.55.71-.47,1.26v.05c.04.2.09.4.18.65l.02.06-.42.11.03.09c.85,2.81,4.43,4.41,8.35,4.22,4.08-.2,6.98-2.27,6.51-5.48Zm-7.32-2.28c3.72-.44,5.87.26,6.19,2.44.35,2.38-1.94,4.01-5.43,4.18h-.12c-2.39.1-4.58-.55-5.91-1.69l-.06-.06-.03-.09c-.06-.22-.16-.47-.31-.84l-.18-.44c-.22-.53-.32-.8-.36-1.03v-.07s-.02-.04-.02-.04c0-.04,0-.06,0-.09v-.02s.35-.08.35-.08l.25-1.03,2.1-.51.44-.1c1.13-.25,2.14-.44,3.1-.55Z"/><path id="Path_196_Copy" class="cls-13" d="m243.84,231.97c-.44-3.02-3.2-3.91-7.46-3.41-1.07.13-2.19.34-3.46.63-.32.07-.99.24-1.58.38-.44.11-.83.2-1,.24l-.41.09-.26,1.08-.04.02c-.4.25-.55.71-.47,1.26v.05c.04.2.09.4.18.65l.02.06-.42.11.03.09c.85,2.81,4.43,4.41,8.35,4.22,4.08-.2,6.98-2.27,6.51-5.48Zm-7.32-2.28c3.72-.44,5.87.26,6.19,2.44.35,2.38-1.94,4.01-5.43,4.18h-.12c-2.39.1-4.58-.55-5.91-1.69l-.06-.06-.03-.09c-.06-.22-.16-.47-.31-.84l-.18-.44c-.22-.53-.32-.8-.36-1.03v-.07s-.02-.04-.02-.04c0-.04,0-.07,0-.09v-.02s.35-.08.35-.08l.25-1.03,2.1-.51.44-.1c1.13-.25,2.14-.44,3.1-.55Z"/><path id="Path_196_Copy_2" class="cls-13" d="m221.23,245.29c-.44-3.02-3.2-3.91-7.46-3.41-1.07.13-2.19.34-3.46.63-.32.07-.99.24-1.58.38-.44.11-.83.2-1,.24l-.41.09-.26,1.08-.04.02c-.4.25-.55.71-.47,1.26v.05c.04.2.09.4.18.65l.02.06-.42.11.03.09c.85,2.81,4.43,4.41,8.35,4.22,4.08-.2,6.98-2.27,6.51-5.48Zm-7.32-2.28c3.72-.44,5.87.26,6.19,2.44.35,2.38-1.94,4.01-5.43,4.18h-.12c-2.39.1-4.58-.55-5.91-1.69l-.06-.06-.03-.09c-.06-.22-.16-.47-.31-.84l-.18-.44c-.22-.53-.32-.8-.36-1.03v-.07s-.02-.04-.02-.04c0-.04,0-.07,0-.09v-.02s.35-.08.35-.08l.25-1.03,2.1-.51.44-.1c1.13-.25,2.14-.44,3.1-.55Z"/><path id="Path_197" d="m275.22,234.46l.47-1.03,2.34,1.04,6.27,2.76c2.77,1.22,4.57,2.04,6.5,2.94l1.37.64.51.23c2.24,1.04,3.42,1.66,4.61,2.54l1.24.93c4.87,3.67,7.6,5.86,8.55,6.81l.03.03c.29.3.44.48.48.72,0,.06.01.11,0,.17v.06s2.67,1.72,2.67,1.72l1.77,1.14-.63.95-3.87-2.49c-1.17-.75-2.12-1.35-2.84-1.81l-1.19-.75-.15-.09-.03-.02-.06-.05.44-.94-.66-.53c-1.38-1.09-3.17-2.47-5.42-4.16l-.93-.7c-1.06-.79-2.1-1.37-4.03-2.27l-1.54-.72-1.36-.64c-1.64-.76-3.28-1.5-5.59-2.53l-8.06-3.55-.87-.39Z"/><path id="Path_197_Copy" d="m252.41,245.25l.47-1.03,2.34,1.04,6.27,2.76c2.77,1.22,4.57,2.04,6.5,2.94l1.37.64.51.23c2.24,1.04,3.42,1.66,4.61,2.54l1.24.93c4.87,3.67,7.6,5.86,8.55,6.81l.03.03c.29.3.44.48.48.72,0,.06.01.11,0,.17v.06s2.67,1.72,2.67,1.72l1.77,1.14-.62.95-3.87-2.49c-1.17-.75-2.12-1.35-2.84-1.81l-1.2-.75-.14-.09-.03-.02-.06-.05.44-.94-.66-.53c-1.38-1.09-3.17-2.47-5.42-4.16l-.93-.7c-1.06-.79-2.1-1.37-4.03-2.27l-1.54-.72-1.36-.64c-1.65-.76-3.28-1.5-5.6-2.53l-8.06-3.55-.87-.39Z"/><path id="Path_197_Copy_2" d="m229.79,258.57l.47-1.03,2.34,1.04,6.27,2.76c2.77,1.22,4.57,2.04,6.5,2.94l1.37.64.51.23c2.24,1.04,3.42,1.66,4.61,2.54l1.24.93c4.87,3.67,7.6,5.86,8.55,6.81l.03.03c.29.3.43.48.48.72.01.06.01.11,0,.17v.06s2.67,1.72,2.67,1.72l1.77,1.14-.62.95-3.87-2.49c-1.17-.75-2.12-1.35-2.84-1.81l-1.2-.75-.14-.09-.03-.02-.06-.05.44-.94-.66-.53c-1.38-1.09-3.17-2.47-5.42-4.16l-.93-.7c-1.06-.79-2.1-1.37-4.03-2.27l-1.54-.72-1.36-.64c-1.65-.76-3.28-1.5-5.6-2.53l-8.06-3.55-.87-.39Z"/><path id="Path_198" d="m147.93,255.89l.42-1.05.65.23c2.23.79,9.61,3.42,13.85,4.99l.61.23c.74.28,1.46.55,2.16.81l1.07.41c5.06,1.95,8.72,3.52,10.64,4.62l.16.09-.59.97-.15-.09c-1.9-1.09-5.68-2.7-10.92-4.71l-.22-.08c-.69-.26-1.39-.53-2.12-.8l-1.35-.5c-2.63-.97-6.32-2.3-9.28-3.36l-4.94-1.75Z"/><path id="Path_199" d="m142.46,261.54l.42-1.05,2.11.82c.45.18.9.35,1.34.52l5.43,2.07c1.69.65,2.54,1,3.41,1.41l.15.07c1.28.63,7.54,4.11,11.19,6.11l1.24.68-.55.99-1.25-.68c-3.7-2.03-10.02-5.54-11.16-6.1l-.37-.17c-.67-.31-1.39-.6-2.57-1.06l-4.94-1.88c-1.21-.46-2.42-.93-3.73-1.44l-.72-.28Z"/><path id="Path_200" d="m125.27,267.21l.67-.92,1.12.8c11.57,8.2,14.09,9.51,27.09,14.19l.83.3-.39,1.07-1.25-.45c-12.87-4.65-15.47-6.04-27.31-14.44l-.76-.54Z"/><path id="Path_201" d="m196.35,281.17l.28-1.1,5.18,1.29c3.34.84,3.06.83,4.21,1.4l1.81.89.49.24c.67.32,1.39.66,2.21,1.03l.72.33c2.98,1.34,6.93,3.01,12.17,5.14l1.1.45c1.11.45,1.83.68,2.21.73h.02s0,0,0,0c.09-.08.21-.13.35-.14h.05c.13,0,.22.04.3.09.02.01.04.03.06.04l.03.02s.04.04.08.06l.38.34c.47.42,1.08.93,1.95,1.63l.35.29-.72.88-.58-.47c-.76-.62-1.31-1.09-1.76-1.48l-.15-.13h-.02c-.09.02-.2.02-.31.02h-.07c-.49-.05-1.32-.3-2.6-.82l-1.38-.56c-5.12-2.08-8.99-3.72-11.94-5.04l-.73-.33c-.97-.44-1.8-.83-2.56-1.2l-1.18-.58-1.13-.57c-.72-.37-.84-.44-3.86-1.2l-4.96-1.23Z"/><path id="Path_202" d="m193.55,287.91l.34-1.08,2.03.63c.92.28,1.81.56,2.69.82l6.95,2.1c2.04.62,3.07.96,4.12,1.35l.47.18c.86.34,1.74.72,3.29,1.43l5.31,2.45,2.31,1.06c1.16.53,2.36,1.07,3.63,1.65l.77.35-.47,1.03-2.27-1.03c-.98-.44-1.92-.87-2.83-1.29l-1.88-.86-4.91-2.26c-1.75-.8-2.64-1.19-3.57-1.55l-.4-.15c-.81-.3-1.65-.58-3.02-1.01l-6.72-2.03c-1.49-.45-3-.91-4.61-1.41l-1.23-.38Z"/><path id="Path_203" d="m177.95,295.55l.49-1.02.57.27c4.02,1.91,7.39,3.77,13.45,7.36l4.8,2.85c5.17,3.06,8.05,4.69,11.43,6.4l.39.19-.52,1.01-.78-.39c-3.55-1.8-6.64-3.57-12.54-7.09l-2.71-1.61c-6.38-3.79-9.82-5.7-13.88-7.64l-.71-.33Z"/><path id="Path_204" d="m228.37,325.34c3.56-.23,7.2.64,11.09,2.48,2.96,1.39,5.84,3.21,9.58,5.9l.54.39c.62.45,4.57,3.37,5.99,4.37l.19.13-.66.93-.3-.21c-1.63-1.16-5.89-4.3-5.98-4.36l-.46-.33c-3.7-2.66-6.52-4.44-9.41-5.8-3.66-1.72-7.05-2.55-10.34-2.38h-.19s-.07-1.12-.07-1.12Z"/><path id="Path_205" d="m241.44,318.94l.31-1.09.33.09c4.72,1.35,8.64,3.31,15.29,7.33l2.81,1.7c3.41,2.06,5.38,3.19,7.66,4.33l.12.06-.52,1.01-.38-.19c-2.13-1.08-4.03-2.16-7.12-4.02l-3.18-1.93c-6.57-3.97-10.41-5.9-15.01-7.21l-.32-.09Z"/><path id="Path_206" d="m247.98,309.44l.31-1.09,4.93,1.34c1.28.35,2.42.67,2.87.8.5.15.97.3,1.42.46l.58.2c1.88.67,3.63,1.44,8.44,3.73l3.04,1.46c2.36,1.13,3.42,1.71,3.74,2.05.23.25.32.58.05.89-.15.16-.3.22-.51.24h-.11c-.15.02-.28,0-.67-.02l-.36-.03h-.09c-.13-.01-.25-.02-.36-.02h-.11s.02.03.02.03c.59.63,2.1,1.73,4.68,3.34l.73.45c.71.43,1.4.58,2.95.67l.9.05c.57.03.92.07,1.3.13l.13.02-.19,1.12-.11-.02c-.34-.05-.66-.08-1.2-.11l-.77-.04c-1.82-.1-2.65-.26-3.6-.84l-.59-.37c-3.26-2.03-4.94-3.3-5.4-4.07-.37-.6-.16-1.19.47-1.39.15-.05.32-.08.52-.09h.04s-.43-.22-.43-.22c-.29-.14-.61-.3-.97-.48l-1.41-.68c-6.39-3.06-8.38-3.96-10.45-4.71l-.41-.14c-.44-.15-.88-.3-1.36-.44l-.42-.13c-.73-.21-2.42-.68-4.03-1.12l-3.56-.97Z"/></g><g id="Master_Office_Supplies_Pencil"><g id="Group"><path id="Path_155" class="cls-11" d="m197.32,229.82s2.59,3.09,17.39,2.06,54.9-4.35,54.9-4.35l-25.42-52.88s-4.1-8.07-8.46-9.17c-4.35-1.1-25.09-4.5-25.09-4.5l-28.94,29.64,4.91,30.42,10.71,8.78Z"/><path id="Path_155_Copy" class="cls-13" d="m210.92,160.84l-29.27,29.98,4.98,30.81,10.81,8.87.03.03c1.87,2.1,7.44,2.8,16.83,2.21l.58-.04.6-.04c8.83-.62,24.2-1.83,46.1-3.63l9.18-.76-25.71-53.48c-2.79-5.48-5.69-8.63-8.75-9.41-2.69-.68-9.99-2.01-21.92-3.98l-3.45-.57Zm-28.29,30.29l28.61-29.31.58.1c13.05,2.14,21.08,3.58,24.06,4.31l.18.04c2.69.68,5.37,3.55,8,8.61l.16.31,25.13,52.28-3.98.33c-22.45,1.85-38.48,3.13-48.1,3.82l-2.16.15c-9.7.68-15.42,0-17.01-1.9l-.03-.03-10.61-8.7-4.85-30.02Z"/><path id="Path_154" class="cls-4" d="m235.73,165.47l-116.54-67.57s-11.84-3.46-22.41,6.49c-10.57,9.96-24.17,28.06-21.48,47.09,0,0,1.91,9.42,10.67,13.99,8.77,4.56,111.34,64.34,111.34,64.34,0,0-10.48-20.09,5.4-44.07,15.88-23.98,33.02-20.27,33.02-20.27Z"/><path id="Path_154_Copy" class="cls-13" d="m238.91,166.89l-119.09-69.05-.29-.08c-7.97-2.24-15.52,0-22.61,6.67-6.18,5.82-11.82,12.86-15.8,20.26-4.91,9.13-7.07,18.34-5.82,27.22v.03c1.3,6.42,4.95,11.2,10.92,14.3l.18.1c6.14,3.24,40.51,23.09,103.08,59.54l9.42,5.49-.73-1.4c-6.9-13.23-5.13-27.75,5.37-43.61,10.49-15.85,21.33-22.5,32.54-20.08l2.83.61Zm-157-41.77c3.93-7.3,9.51-14.27,15.62-20.03,6.94-6.53,14.24-8.65,21.97-6.39l-.05-.02,114.36,66.31-.34-.03c-10.53-.93-20.66,5.9-30.39,20.41l-.32.48c-10.24,15.47-12.33,29.79-6.22,42.9l.12.26-4.67-2.72c-63.91-37.24-98.96-57.49-105.18-60.77l-.36-.19c-5.62-2.98-9.04-7.5-10.27-13.58h0s-.03-.23-.03-.23c-1.13-8.51.93-17.34,5.61-26.13l.14-.27Z"/><path id="Path_158_Copy" class="cls-11" d="m147.06,114.05l-13.52-7.83s-.92-.37-.96-.38c-7.45-2.11-13.97-1.01-19.72,3.94-8.66,7.46-18.67,19.9-22.41,31.25-3.74,11.36-3.26,23.16,2.5,28.54,0,0,4.75,2.73,9.37,5.27,4.62,2.54,4.44,2.37,4.44,2.37,0,0-.33-20.04,12.17-38.85,12.5-18.81,28.14-24.32,28.14-24.32Z"/><path id="Path_158_Copy_2" class="cls-13" d="m133.34,105.84c-.1-.04-.16-.06-.18-.07l-.24-.07c-7.65-2.11-14.21-.81-19.91,4.1-9.79,8.43-19.09,20.95-22.55,31.46-3.95,11.99-3.08,23.68,2.62,29.01l.04.04.84.48c2.9,1.66,5.76,3.26,8.58,4.82l.4.22c1.21.67,2.15,1.18,2.82,1.54l.61.32c.1.05.18.1.26.14l.2.1c.08.04.13.06.17.08h.04c.06.03.1.04.17.04h.03s.07,0,.15-.05l.12-.07c.15-.23.17-.27.15-.4h0s0-.36,0-.36c-.13-12.99,3.82-25.59,11.85-37.82l.25-.37c8.28-12.47,17.58-20.51,27.91-24.14l.93-.33-14.41-8.34-.84-.33Zm-42.02,35.7c3.4-10.33,12.6-22.72,22.27-31.05,5.52-4.75,11.84-5.96,19.3-3.85l.88.35,12.65,7.33-.33.12c-9.92,3.86-18.88,11.75-26.87,23.66l-.25.38c-8.21,12.36-12.3,25.14-12.26,38.31v.07s-.34-.18-.34-.18c-.5-.27-1.18-.64-2.05-1.11l-2.14-1.18c-2.83-1.56-5.69-3.18-8.59-4.84l.05.03-.12-.12c-5.19-5.06-6.01-16.11-2.33-27.56l.11-.35Z"/><path id="Path_156_Copy" class="cls-13" d="m264.71,215.8l-.39.15c-2.92,1.14-4.97,2.91-6.14,5.29-1.15,2.35-1.57,4.92-1.27,7.68l.05.44,13.79-1.08-6.04-12.48Zm-.48,1.17h.03s5.09,10.5,5.09,10.5l-11.58.9v-.05c-.19-2.34.2-4.52,1.15-6.54l.07-.14c1.01-2.05,2.74-3.61,5.23-4.67Z"/><path id="Path_158" class="cls-7" d="m134.12,106.48l-14.59-8.45s-11.23-3.23-19.9,4.22c-8.66,7.46-18.67,19.9-22.41,31.25-3.74,11.36-2.92,22.3,2.83,27.68,0,0,4.42,3.58,9.04,6.12,4.62,2.54,4.44,2.37,4.44,2.37,0,0-.33-20.04,12.17-38.85,12.5-18.81,28.42-24.36,28.42-24.36Z"/><path id="Path_158_Copy_3" class="cls-13" d="m135.32,106.82l-15.5-8.98-.28-.08c-7.54-2.1-14.26-.64-20.09,4.38-9.79,8.43-19.09,20.95-22.55,31.46-3.87,11.76-2.84,22.75,2.95,28.16l.02.02c2.97,2.4,6,4.46,9.1,6.17,1.54.85,2.68,1.47,3.42,1.87l.4.21c.1.05.18.1.26.14l.2.1c.08.04.13.06.17.08h.04c.06.03.1.04.17.04h.02c.06,0,.08,0,.17-.05l.12-.07c.15-.24.17-.27.15-.4h0s0-.36,0-.36c-.13-12.99,3.82-25.59,11.85-37.82l.25-.37c8.28-12.46,17.68-20.52,28.19-24.18l.94-.33Zm-57.56,27.07c3.4-10.33,12.6-22.72,22.27-31.05,5.66-4.87,12.13-6.24,19.47-4.13l-.05-.02,13.7,7.93-.34.13c-10.1,3.88-19.14,11.79-27.13,23.7l-.25.38c-8.21,12.36-12.3,25.14-12.26,38.31v.07s-.13-.07-.13-.07l-.48-.26c-.29-.16-.64-.34-1.03-.56l-2.11-1.16c-3.05-1.68-6.04-3.71-8.97-6.08h.01s-.15-.13-.15-.13c-5.29-5.13-6.26-15.49-2.66-26.71l.11-.34Z"/><path id="Path_157" class="cls-11" d="m263.68,223.7l-22.89-48.56s-3.37-4-19.21-12.73c-15.84-8.72-102.82-58.63-102.82-58.63,0,0-6.59-1.29-10.28,2.38l118.18,67.53s9.21,5.38,11.67,11.81c2.46,6.44,19.85,42.98,19.85,42.98l5.5-4.78Z"/><path id="Path_156" class="cls-13" d="m256.92,228.51l12.69-.99-5.57-11.5s-4.23,1.65-5.9,5.07c-1.67,3.41-1.22,7.42-1.22,7.42Z"/></g></g></svg>