<?xml version="1.0" encoding="UTF-8"?><svg id="Layer_1" xmlns="http://www.w3.org/2000/svg" viewBox="0 0 512 512"><defs><style>.cls-1,.cls-2{fill:#fff;}.cls-3{fill:#fbb811;}.cls-4{fill:#848484;}.cls-5{fill:#4cd7ad;}.cls-6{fill:#eaeaea;}.cls-6,.cls-2{stroke:#bcbcbc;}.cls-6,.cls-2,.cls-7,.cls-8{stroke-miterlimit:10;stroke-width:.9px;}.cls-7{fill:#e9f9ff;}.cls-7,.cls-8{stroke:#8c8c8c;}.cls-8{fill:#f8fdff;}</style></defs><path id="Vector" class="cls-3" d="m155.16,148.87c-2.01-1.72-1.72-4.3-2.58-6.6-1.43-4.3-4.02-6.88-8.32-8.32-2.01-.57-4.3-1.43-6.31-2.29-.57-.86-.29-1.72-.29-2.87.29-.29.86-.29,1.15-.57,1.43-.57,3.16-1.15,4.59-1.43,5.74-1.15,8.61-5.45,9.75-10.61.29-1.43.57-2.87,1.43-4.3.86-.29,1.72-.29,2.58,0,4.59,15.2,7.17,13.77,16.64,16.64.29.29.29.57.29.86v2.58c-10.04,1.15-15.78,6.6-16.92,16.35,0,.86-1.15.57-2.01.57Z"/><path id="Vector_2" class="cls-3" d="m382.06,219.72c.57,2.58-1.72,2.87-2.87,3.16-2.58.57-4.02,2.58-5.45,4.3-.86.86-.86,2.01-.86,2.87-.29,1.72-1.15,2.29-3.15,2.01-1.43-2.01-1.15-5.16-3.44-7.17-2.01-2.01-5.16-1.72-7.17-3.73,0-2.01,1.43-2.29,2.58-2.58,4.02-1.15,6.31-3.73,7.46-7.75.29-.86.86-1.43,2.01-2.01,2.01,1.72,1.43,5.16,3.44,6.88,2.29,2.29,4.88,3.16,7.46,4.02Z"/><path id="Vector_3" class="cls-2" d="m303.17,157.76v4.02c-.29,10.04,6.02,16.64,16.06,17.21,4.3.29,8.89,0,13.2,0,1.72,0,3.44.29,6.02.57,0,27.54,0,55.08-.29,82.62,0,31.55,0,63.11-.29,94.66v11.47c0,4.02,1.43,8.61-3.44,9.47-15.2,2.3-32.99,2.58-48.19,0-7.74-1.43-16.06-.57-24.1-.57h-25.53c-15.49,0-31.27-.29-46.76,0-4.3,0-8.32.57-12.62,0-6.31-.86-10.04-4.59-10.04-10.9v-32.42c0-17.5-.29-35.28-.29-52.78,0-12.34.29-24.67.29-37s-.29-25.53-.29-38.15c0-5.74.29-11.47.29-17.21-.29-8.89,0-18.07,0-26.96,2.01.29,3.16-1.15,4.59-2.29,2.87-2.58,6.31-3.16,9.75-3.16,10.04.29,20.08,0,30.12.29h31.27c10.04,0,20.08,0,30.12.29,10.04-.29,20.08-1.15,30.12.86Z"/><path id="Vector_4" class="cls-6" d="m303.18,157.76c-10.04-2.01-111.59-1.43-121.63-1.72-3.44,0-6.88.57-9.75,3.16-1.15,1.15-2.29,2.58-4.59,2.29v-6.6c0-8.03,4.59-12.33,12.33-12.05,6.6.29,108.43.29,121.05,0,.57,0,1.15.29,2.3.57.29,4.88.29,9.47.29,14.34Z"/><path id="Vector_5" class="cls-4" d="m314.65,217.71h-117.61c-.86,0-1.72-.86-1.72-1.72v-6.02c0-.86.86-1.72,1.72-1.72h117.61c.86,0,1.72.86,1.72,1.72v6.02c0,1.15-.86,1.72-1.72,1.72Z"/><path id="Vector_6" class="cls-4" d="m253.55,240.95h-56.8c-.86,0-1.72-.86-1.72-1.72v-6.02c0-.86.86-1.72,1.72-1.72h56.51c.86,0,1.72.86,1.72,1.72v6.02c.29.86-.57,1.72-1.43,1.72Z"/><path id="Vector_7" class="cls-5" d="m325.26,198.21c24.87,0,45.04-20.16,45.04-45.04s-20.16-45.04-45.04-45.04-45.04,20.16-45.04,45.04,20.16,45.04,45.04,45.04Z"/><g id="Group_2"><path id="Vector_8" class="cls-7" d="m385.5,275.66q2.01,2.3.86,5.16c-3.73,7.75-7.74,15.49-11.47,23.24-13.77,27.54-27.54,54.79-41.31,82.33-4.02,8.03-10.9,20.65-14.92,28.4-1.15.57-150.89-.29-206.25-.29h-1.43c-1.15-.86-2.58-1.72-1.72-3.44,1.72-2.3,3.16-4.88,4.02-7.74,1.15-.57,1.15-1.72,1.43-2.3,10.9-21.51,21.51-43.03,32.42-64.83,4.02-8.32,8.61-16.35,12.05-24.67,3.16-5.74,6.31-11.19,8.61-17.21,2.29-2.87,3.44-6.6,5.16-9.75,1.43-2.58,2.58-5.74,4.59-8.32h203.67c1.72-.57,2.87-.29,4.3-.57Zm-26.96,20.37h-58.52c-4.3,7.46-4.59,8.32-4.59,11.19h58.23c1.43-3.73,4.02-6.89,4.88-11.19Z"/><path id="Vector_9" class="cls-7" d="m167.78,241.24c-3.16,0-6.6,0-9.75-.29v.29h.86c.86,1.43.57,2.87.57,4.59v60.81c0,1.72,0,3.16.29,4.88,3.16-5.74,6.31-11.19,8.61-17.21v-19.51c-.57-11.48-.57-22.66-.57-33.56Z"/><path id="Vector_10" class="cls-8" d="m113.28,403.02v-171.25c0-1.43-.29-2.87.29-4.3h27.54c4.02,3.73,7.17,9.18,11.19,13.48,2.01.57,4.3,0,6.6.29.86,1.43.57,2.87.57,4.59v60.81c0,1.72,0,3.16.29,4.88-3.73,8.32-8.03,16.64-12.05,24.67-10.9,21.51-21.51,43.03-32.41,64.83-.86.57-1.15,1.72-2.01,2.01Z"/></g><path id="Vector_11" class="cls-4" d="m362.27,296.03h-62.53c-4.59,8.03-5.16,8.89-4.88,12.05h61.96c1.72-4.3,4.3-7.46,5.45-12.05Z"/><path id="Vector_12" class="cls-1" d="m321.25,172.39s-.29,0,0,0c-1.72,0-3.44-.86-4.3-2.01l-13.19-16.35c-2.01-2.29-1.43-6.02.86-7.75,2.3-2.01,6.02-1.43,7.74.86l9.18,11.19,19.79-21.51c2.01-2.29,5.45-2.29,7.75-.29s2.3,5.74.29,7.75l-24.1,26.1c-1.15,1.43-2.58,2.01-4.02,2.01Z"/><path id="Vector_13" class="cls-3" d="m399.56,152.31h-17.5c-1.72,0-3.44-1.43-3.44-3.44,0-1.72,1.43-3.44,3.44-3.44h17.5c1.72,0,3.44,1.43,3.44,3.44s-1.43,3.44-3.44,3.44Z"/><path id="Vector_14" class="cls-3" d="m377.47,131.94c-1.15,0-2.58-.57-2.87-2.01-.86-1.72,0-3.73,1.43-4.3l15.78-7.46c1.72-.86,3.73,0,4.3,1.43.86,1.72,0,3.73-1.43,4.3l-15.78,7.46c-.29.57-.86.57-1.43.57Z"/><path id="Vector_15" class="cls-3" d="m366,113.58c-.86,0-1.72-.29-2.3-.86-1.43-1.43-1.43-3.44,0-4.59l10.04-10.04c1.43-1.43,3.44-1.43,4.59,0,1.43,1.43,1.43,3.44,0,4.59l-10.04,10.04c-.86.57-1.72.86-2.3.86Z"/><path id="Vector_16" class="cls-3" d="m142.54,170.67c2.53,0,4.59-2.05,4.59-4.59s-2.05-4.59-4.59-4.59-4.59,2.05-4.59,4.59,2.05,4.59,4.59,4.59Z"/><path id="Vector_17" class="cls-3" d="m386.94,244.96c-4.02,0-7.17-3.16-7.17-7.17s3.16-7.17,7.17-7.17,7.17,3.16,7.17,7.17-3.16,7.17-7.17,7.17Zm0-9.75c-1.43,0-2.87,1.15-2.87,2.87s1.15,2.87,2.87,2.87,2.87-1.15,2.87-2.87-1.15-2.87-2.87-2.87Z"/></svg>