<?xml version="1.0" encoding="UTF-8"?><svg id="Layer_1" xmlns="http://www.w3.org/2000/svg" viewBox="0 0 512 512"><defs><style>.cls-1{fill:#f9c818;}.cls-2{fill:#edf4f7;}.cls-3,.cls-4{fill:#fff;}.cls-5{fill:#ffebfa;}.cls-6{fill:#fff59b;}.cls-7{fill:#ffb8e8;}.cls-8,.cls-9{fill:#ff2e52;}.cls-10{fill:#ff82d6;}.cls-11{fill:#9fddff;}.cls-12{fill:#b8dde8;}.cls-13{fill:#d0eaf4;}.cls-14{fill:#abf0cf;}.cls-15{fill:#204eb2;}.cls-16{fill:#237978;}.cls-17{fill:#814d4d;}.cls-18{fill:#33c37e;}.cls-19,.cls-20{stroke:#000;stroke-miterlimit:10;stroke-width:.98px;}.cls-19,.cls-20,.cls-21,.cls-22,.cls-23,.cls-9,.cls-24,.cls-25,.cls-4,.cls-26,.cls-27{fill-rule:evenodd;}.cls-19,.cls-26{fill:#ffb1ea;}.cls-20,.cls-21{fill:#f9dc4a;}.cls-22{fill:#94b1eb;}.cls-23{fill:#e1e1e1;}.cls-24{fill:#83bb9e;}.cls-25{fill:#f1efef;}</style></defs><path id="Path" class="cls-13" d="m343.22,328.87H53.37c-5.05,0-9.15-4.32-9.15-9.65V107.23c0-5.33,4.1-9.65,9.15-9.65h289.85c5.05,0,9.15,4.32,9.15,9.65v211.98c0,5.33-4.09,9.65-9.15,9.65Z"/><path id="Path_Copy" class="cls-27" d="m54.13,96.87h289.74c5.35,0,9.68,4.57,9.68,10.22v212.03c0,5.64-4.33,10.22-9.68,10.22H54.13c-5.34,0-9.68-4.57-9.68-10.22V107.09c0-5.64,4.33-10.22,9.68-10.22Zm289.74,1.12H54.13c-4.76,0-8.61,4.07-8.61,9.09v212.03c0,5.02,3.86,9.09,8.61,9.09h289.74c4.76,0,8.61-4.07,8.61-9.09V107.09c0-5.02-3.85-9.09-8.61-9.09Z"/><path id="Path_2" class="cls-2" d="m347.92,333.33H58.07c-5.05,0-9.15-4.32-9.15-9.65V111.7c0-5.33,4.1-9.65,9.15-9.65h289.85c5.05,0,9.15,4.32,9.15,9.65v211.98c0,5.33-4.09,9.65-9.15,9.65Z"/><path id="Path_Copy_2" class="cls-27" d="m58.83,101.1h289.74c5.35,0,9.68,4.57,9.68,10.22v212.03c0,5.64-4.33,10.22-9.68,10.22H58.83c-5.34,0-9.68-4.57-9.68-10.22V111.32c0-5.64,4.33-10.22,9.68-10.22Zm289.74,1.12H58.83c-4.76,0-8.61,4.07-8.61,9.09v212.03c0,5.02,3.86,9.09,8.61,9.09h289.74c4.76,0,8.61-4.07,8.61-9.09V111.32c0-5.02-3.85-9.09-8.61-9.09Z"/><path id="Path_3" class="cls-3" d="m210.64,306.18c0,4.25-3.13,7.64-6.93,7.64s-6.93-3.39-6.93-7.64,3.13-7.64,6.93-7.64,6.93,3.39,6.93,7.64Z"/><path id="Path_Copy_3" class="cls-27" d="m197,306.18c0-4.61,3.32-8.34,7.4-8.34s7.4,3.73,7.4,8.34-3.32,8.34-7.4,8.34-7.4-3.73-7.4-8.34Zm13.74,0c0-4-2.85-7.21-6.34-7.21s-6.34,3.21-6.34,7.21,2.85,7.21,6.34,7.21,6.34-3.21,6.34-7.21Z"/><path id="Path_4" class="cls-3" d="m350.02,119.14v159.89H58.32V119.14c0-3.86,2.97-6.99,6.63-6.99h278.45c3.66,0,6.62,3.13,6.62,6.99Z"/><path id="Path_Copy_4" class="cls-27" d="m65.71,111.44h278.33c3.95,0,7.15,3.38,7.15,7.56v160.5H58.56V119c0-4.17,3.2-7.56,7.16-7.56Zm278.43,1.13h-.1s-278.33,0-278.33,0c-3.36,0-6.09,2.88-6.09,6.43v159.38s290.51,0,290.51,0V119c0-3.52-2.67-6.38-5.99-6.43Z"/><path id="Path_5" class="cls-13" d="m42.81,351.36v-10.04l171.15,24.14,251.24,39.01v10.42H115.76l-72.95-63.53Z"/><path id="Path_Copy_5" class="cls-27" d="m43.04,350.92v-11.01l171.8,24.37,251.76,39.31v11.53H116.35l-73.31-64.21Zm171.65,14.48l-170.59-24.2v9.19l72.62,63.61h348.8v-9.43l-250.84-39.17Z"/><path id="Path_6" class="cls-2" d="m357.58,341.56H43.51l72.33,63.23h350.3l-108.56-63.23Z"/><path id="Path_Copy_6" class="cls-27" d="m42.81,340.85h315.84l110.54,64.4H116.46l-73.65-64.4Zm422.25,63.28l-106.68-62.16H45.77l71.08,62.16h348.21Z"/><path id="Path_7" class="cls-13" d="m345.46,351.2H76.66l31.61,26.56h279.36l-42.16-26.56Z"/><path id="Path_Copy_7" class="cls-27" d="m75.25,350.26h270.75l43.98,27.74H108.22l-32.97-27.74Zm310.88,26.61l-40.43-25.49H78.29l30.31,25.49h277.53Z"/><path id="Path_8" class="cls-13" d="m337.68,382.69h-145.38l26.04,18.1h154.25l-34.9-18.1Z"/><path id="Path_Copy_8" class="cls-27" d="m191.6,381.99h147.41l37.11,19.04h-156.84l-27.68-19.04Zm179.93,17.93l-32.77-16.82h-143.61l24.44,16.82h151.93Z"/><path id="Path_9" class="cls-12" d="m349.55,119.6v159.67H58.32V119.6c0-3.86,2.96-6.98,6.61-6.98h278c3.66,0,6.62,3.13,6.62,6.98Z"/><path id="Path_Copy_9" class="cls-27" d="m65.71,111.68h278.1c3.95,0,7.15,3.38,7.15,7.55v160.28H58.56V119.23c0-4.17,3.2-7.55,7.15-7.55Zm278.2,1.13h-.1s-278.1,0-278.1,0c-3.36,0-6.08,2.88-6.08,6.42v159.15h290.27V119.23c0-3.51-2.67-6.37-5.99-6.42Z"/><g id="Master_Stickers_UI_Design"><g id="Group-123"><path id="Fill-1" class="cls-4" d="m231.96,321.39h-68.9c-4.65,0-8.42-3.76-8.42-8.4v-173.4c0-4.64,3.77-8.4,8.42-8.4h12.23c3.01,0,5.45,2.43,5.45,5.43s2.44,5.43,5.45,5.43h22.66c3.01,0,5.45-2.43,5.45-5.43s2.44-5.43,5.45-5.43h12.23c4.65,0,8.42,3.76,8.42,8.4v173.4c0,4.64-3.77,8.4-8.42,8.4"/><path id="Fill-3" class="cls-27" d="m163.24,131.1c-4.5,0-8.17,3.67-8.17,8.19v173.48c0,4.52,3.66,8.19,8.17,8.19h68.55c4.5,0,8.17-3.67,8.17-8.19v-173.48c0-4.52-3.66-8.19-8.17-8.19h-12.17c-2.87,0-5.2,2.34-5.2,5.22,0,3.12-2.53,5.65-5.63,5.65h-22.55c-3.11,0-5.63-2.53-5.63-5.65,0-2.88-2.33-5.22-5.2-5.22h-12.17Zm68.55,190.29h-68.55c-4.74,0-8.6-3.87-8.6-8.62v-173.48c0-4.75,3.86-8.62,8.6-8.62h12.17c3.11,0,5.63,2.53,5.63,5.65,0,2.88,2.33,5.22,5.2,5.22h22.55c2.87,0,5.2-2.34,5.2-5.22,0-3.12,2.53-5.65,5.63-5.65h12.17c4.74,0,8.6,3.87,8.6,8.62v173.48c0,4.75-3.86,8.62-8.6,8.62h0Z"/><path id="Fill-5" class="cls-4" d="m297.41,207.58h-30.9c-2.09,0-3.78-1.68-3.78-3.74v-77.22c0-2.07,1.69-3.74,3.78-3.74h5.48c1.35,0,2.44,1.08,2.44,2.42s1.09,2.42,2.44,2.42h10.16c1.35,0,2.44-1.08,2.44-2.42s1.09-2.42,2.44-2.42h5.48c2.09,0,3.78,1.68,3.78,3.74v77.22c0,2.07-1.69,3.74-3.78,3.74"/><path id="Fill-7" class="cls-27" d="m266.71,122.84c-1.92,0-3.49,1.57-3.49,3.5v77.25c0,1.93,1.56,3.5,3.49,3.5h30.51c1.92,0,3.49-1.57,3.49-3.5v-77.25c0-1.93-1.56-3.5-3.49-3.5h-5.41c-1.2,0-2.17.98-2.17,2.18,0,1.47-1.19,2.66-2.66,2.66h-10.03c-1.46,0-2.66-1.2-2.66-2.66,0-1.2-.97-2.18-2.17-2.18h-5.42Zm30.51,84.74h-30.51c-2.19,0-3.97-1.79-3.97-3.99v-77.25c0-2.2,1.78-3.99,3.97-3.99h5.42c1.46,0,2.66,1.2,2.66,2.66,0,1.2.97,2.18,2.17,2.18h10.03c1.2,0,2.17-.98,2.17-2.18,0-1.47,1.19-2.66,2.66-2.66h5.41c2.19,0,3.97,1.79,3.97,3.99v77.25c0,2.2-1.78,3.99-3.97,3.99h0Z"/><path id="Fill-9" class="cls-4" d="m123.13,272.54h-40.92c-2.76,0-5-2.25-5-5.03v-103.76c0-2.78,2.24-5.03,5-5.03h7.26c1.79,0,3.23,1.46,3.23,3.25s1.45,3.25,3.23,3.25h13.46c1.79,0,3.23-1.46,3.23-3.25s1.45-3.25,3.24-3.25h7.26c2.76,0,5,2.25,5,5.03v103.76c0,2.78-2.24,5.03-5,5.03"/><path id="Fill-11" class="cls-27" d="m81.94,159.22c-2.63,0-4.76,2.15-4.76,4.78v103.78c0,2.64,2.14,4.78,4.76,4.78h40.95c2.63,0,4.76-2.15,4.76-4.78v-103.78c0-2.64-2.14-4.78-4.76-4.78h-7.27c-1.65,0-2.99,1.35-2.99,3.01,0,1.93-1.56,3.5-3.48,3.5h-13.47c-1.92,0-3.48-1.57-3.48-3.5,0-1.66-1.34-3.01-2.99-3.01h-7.27Zm40.95,113.84h-40.95c-2.9,0-5.25-2.37-5.25-5.27v-103.78c0-2.91,2.36-5.27,5.25-5.27h7.27c1.92,0,3.48,1.57,3.48,3.5,0,1.66,1.34,3.01,2.99,3.01h13.47c1.65,0,2.99-1.35,2.99-3.01,0-1.93,1.56-3.5,3.48-3.5h7.27c2.9,0,5.25,2.37,5.25,5.27v103.78c0,2.91-2.36,5.27-5.25,5.27h0Z"/><path id="Fill-13" class="cls-22" d="m247.35,217.97h-5.4v-.3h5.4c1.63,0,2.95-1.33,2.95-2.97v-46.46c0-1.81,1.46-3.27,3.25-3.27h9.18v.3h-9.18c-1.63,0-2.95,1.33-2.95,2.97v46.46c0,1.81-1.46,3.27-3.25,3.27"/><path id="Fill-15" class="cls-22" d="m153.08,262.14h-9.56c-2.25,0-4.08-1.84-4.08-4.1v-38.57c0-2.07-1.68-3.76-3.74-3.76h-7.56v-.34h7.56c2.25,0,4.08,1.84,4.08,4.1v38.57c0,2.07,1.68,3.76,3.74,3.76h9.56v.34Z"/><path id="Fill-17" class="cls-22" d="m157.24,262.14c0,1.15-.93,2.08-2.08,2.08s-2.08-.93-2.08-2.08.93-2.08,2.08-2.08,2.08.93,2.08,2.08"/><path id="Fill-19" class="cls-22" d="m242.47,217.45c0,1.15-.93,2.08-2.08,2.08s-2.08-.93-2.08-2.08.93-2.08,2.08-2.08,2.08.93,2.08,2.08"/><path id="Fill-21" class="cls-22" d="m264.29,164.96c0,.86-.7,1.56-1.56,1.56s-1.56-.7-1.56-1.56.7-1.56,1.56-1.56,1.56.7,1.56,1.56"/><path id="Fill-23" class="cls-22" d="m281.44,207.58c0,.86-.7,1.56-1.56,1.56s-1.56-.7-1.56-1.56.7-1.56,1.56-1.56,1.56.7,1.56,1.56"/><path id="Fill-25" class="cls-22" d="m129.7,215.63c0,1-.81,1.82-1.82,1.82s-1.82-.81-1.82-1.82.81-1.82,1.82-1.82,1.82.81,1.82,1.82"/><path id="Fill-27" class="cls-26" d="m93.32,188.61c0,3.59-2.91,6.5-6.5,6.5s-6.5-2.91-6.5-6.5,2.91-6.5,6.5-6.5,6.5,2.91,6.5,6.5"/><path id="Fill-29" class="cls-21" d="m122.41,186.27h-24.92c-.58,0-1.05-.47-1.05-1.04s.47-1.04,1.05-1.04h24.92c.58,0,1.05.47,1.05,1.04s-.47,1.04-1.05,1.04"/><path id="Fill-31" class="cls-21" d="m122.41,191.99h-24.92c-.58,0-1.05-.47-1.05-1.04s.47-1.04,1.05-1.04h24.92c.58,0,1.05.47,1.05,1.04s-.47,1.04-1.05,1.04"/><path id="Fill-33" class="cls-26" d="m93.32,209.4c0,3.59-2.91,6.5-6.5,6.5s-6.5-2.91-6.5-6.5,2.91-6.5,6.5-6.5,6.5,2.91,6.5,6.5"/><path id="Fill-35" class="cls-21" d="m122.41,207.06h-24.92c-.58,0-1.05-.47-1.05-1.04s.47-1.04,1.05-1.04h24.92c.58,0,1.05.47,1.05,1.04s-.47,1.04-1.05,1.04"/><path id="Fill-37" class="cls-21" d="m122.41,212.77h-24.92c-.58,0-1.05-.47-1.05-1.04s.47-1.04,1.05-1.04h24.92c.58,0,1.05.47,1.05,1.04s-.47,1.04-1.05,1.04"/><path id="Fill-39" class="cls-25" d="m294.23,197.7h-24.54c-.97,0-1.76-.78-1.76-1.75v-58.86c0-.97.79-1.75,1.76-1.75h24.54c.97,0,1.76.78,1.76,1.75v58.86c0,.97-.79,1.75-1.76,1.75"/><path id="Fill-41" class="cls-26" d="m93.32,230.18c0,3.59-2.91,6.5-6.5,6.5s-6.5-2.91-6.5-6.5,2.91-6.5,6.5-6.5,6.5,2.91,6.5,6.5"/><path id="Fill-43" class="cls-21" d="m122.41,228.36h-24.92c-.58,0-1.05-.47-1.05-1.04s.47-1.04,1.05-1.04h24.92c.58,0,1.05.47,1.05,1.04s-.47,1.04-1.05,1.04"/><path id="Fill-45" class="cls-21" d="m122.41,233.56h-24.92c-.58,0-1.05-.47-1.05-1.04s.47-1.04,1.05-1.04h24.92c.58,0,1.05.47,1.05,1.04s-.47,1.04-1.05,1.04"/><path id="Fill-47" class="cls-26" d="m93.32,250.97c0,3.59-2.91,6.5-6.5,6.5s-6.5-2.91-6.5-6.5,2.91-6.5,6.5-6.5,6.5,2.91,6.5,6.5"/><path id="Fill-49" class="cls-21" d="m122.41,249.15h-24.92c-.58,0-1.05-.47-1.05-1.04s.47-1.04,1.05-1.04h24.92c.58,0,1.05.47,1.05,1.04s-.47,1.04-1.05,1.04"/><path id="Fill-51" class="cls-21" d="m122.41,254.87h-24.92c-.58,0-1.05-.47-1.05-1.04s.47-1.04,1.05-1.04h24.92c.58,0,1.05.47,1.05,1.04s-.47,1.04-1.05,1.04"/><path id="Fill-53" class="cls-20" d="m203.61,230.96h-54.3c-1.37,0-2.47-1.11-2.47-2.47v-62.1c0-1.36,1.11-2.47,2.47-2.47h54.3c1.37,0,2.47,1.1,2.47,2.47v62.1c0,1.36-1.11,2.47-2.47,2.47"/><path id="Fill-55" class="cls-19" d="m233.37,222.13h-40.01c-1.01,0-1.82-.81-1.82-1.82v-45.73c0-1,.82-1.82,1.82-1.82h40.01c1.01,0,1.82.81,1.82,1.82v45.73c0,1-.82,1.82-1.82,1.82"/><path id="Fill-57" class="cls-25" d="m225.15,249.15h-54.76c-.67,0-1.2-.58-1.2-1.3s.54-1.3,1.2-1.3h54.76c.67,0,1.2.58,1.2,1.3s-.54,1.3-1.2,1.3"/><path id="Fill-59" class="cls-25" d="m225.15,257.47h-54.76c-.67,0-1.2-.58-1.2-1.3s.54-1.3,1.2-1.3h54.76c.67,0,1.2.58,1.2,1.3s-.54,1.3-1.2,1.3"/><path id="Fill-61" class="cls-25" d="m225.15,265.26h-54.76c-.67,0-1.2-.58-1.2-1.3s.54-1.3,1.2-1.3h54.76c.67,0,1.2.58,1.2,1.3s-.54,1.3-1.2,1.3"/><path id="Fill-63" class="cls-25" d="m225.15,273.58h-54.76c-.67,0-1.2-.58-1.2-1.3s.54-1.3,1.2-1.3h54.76c.67,0,1.2.58,1.2,1.3s-.54,1.3-1.2,1.3"/><path id="Fill-65" class="cls-25" d="m225.15,281.37h-54.76c-.67,0-1.2-.58-1.2-1.3s.54-1.3,1.2-1.3h54.76c.67,0,1.2.58,1.2,1.3s-.54,1.3-1.2,1.3"/><path id="Fill-67" class="cls-24" d="m245.57,304.24h-55.59c-.87,0-1.57-.7-1.57-1.55v-9.88c0-.86.7-1.55,1.57-1.55h55.59c.87,0,1.57.7,1.57,1.55v9.88c0,.86-.7,1.55-1.57,1.55"/><path id="Fill-69" class="cls-23" d="m292.72,144.7h-21.51c-.66,0-1.2-.55-1.2-1.23v-4.29c0-.68.54-1.23,1.2-1.23h21.51c.66,0,1.2.55,1.2,1.23v4.29c0,.68-.54,1.23-1.2,1.23"/><path id="Fill-71" class="cls-23" d="m292.72,154.57h-21.51c-.66,0-1.2-.55-1.2-1.23v-4.29c0-.68.54-1.23,1.2-1.23h21.51c.66,0,1.2.55,1.2,1.23v4.29c0,.68-.54,1.23-1.2,1.23"/><path id="Fill-73" class="cls-23" d="m292.72,164.44h-21.51c-.66,0-1.2-.55-1.2-1.23v-4.29c0-.68.54-1.23,1.2-1.23h21.51c.66,0,1.2.55,1.2,1.23v4.29c0,.68-.54,1.23-1.2,1.23"/><path id="Fill-75" class="cls-23" d="m292.72,174.32h-21.51c-.66,0-1.2-.55-1.2-1.23v-4.29c0-.68.54-1.23,1.2-1.23h21.51c.66,0,1.2.55,1.2,1.23v4.29c0,.68-.54,1.23-1.2,1.23"/><path id="Fill-77" class="cls-23" d="m292.72,184.19h-21.51c-.66,0-1.2-.55-1.2-1.23v-4.29c0-.68.54-1.23,1.2-1.23h21.51c.66,0,1.2.55,1.2,1.23v4.29c0,.68-.54,1.23-1.2,1.23"/><path id="Fill-79" class="cls-23" d="m292.72,194.06h-21.51c-.66,0-1.2-.55-1.2-1.23v-4.29c0-.68.54-1.23,1.2-1.23h21.51c.66,0,1.2.55,1.2,1.23v4.29c0,.68-.54,1.23-1.2,1.23"/><path id="Fill-81" class="cls-22" d="m289.24,229.4h-6.65c-1.78,0-3.22-1.47-3.22-3.27v-18.56h.29v18.56c0,1.64,1.31,2.97,2.92,2.97h6.65v.3Z"/><path id="Fill-83" class="cls-4" d="m325.37,277.21h-31.74c-2.14,0-3.88-1.74-3.88-3.88v-80.07c0-2.14,1.74-3.88,3.88-3.88h5.63c1.39,0,2.51,1.12,2.51,2.51s1.12,2.51,2.51,2.51h10.44c1.39,0,2.51-1.12,2.51-2.51s1.12-2.51,2.51-2.51h5.63c2.14,0,3.88,1.74,3.88,3.88v80.07c0,2.14-1.74,3.88-3.88,3.88"/><path id="Fill-85" class="cls-27" d="m293.83,189.74c-2.05,0-3.72,1.65-3.72,3.69v79.74c0,2.03,1.67,3.69,3.72,3.69h31.86c2.05,0,3.72-1.65,3.72-3.69v-79.74c0-2.03-1.67-3.69-3.72-3.69h-5.66c-1.29,0-2.34,1.04-2.34,2.32,0,1.48-1.21,2.68-2.7,2.68h-10.48c-1.49,0-2.7-1.2-2.7-2.68,0-1.28-1.05-2.32-2.34-2.32h-5.66Zm31.86,87.47h-31.86c-2.25,0-4.08-1.81-4.08-4.04v-79.74c0-2.23,1.83-4.04,4.08-4.04h5.66c1.49,0,2.7,1.2,2.7,2.68,0,1.28,1.05,2.32,2.34,2.32h10.48c1.29,0,2.34-1.04,2.34-2.32,0-1.48,1.21-2.68,2.7-2.68h5.66c2.25,0,4.08,1.81,4.08,4.04v79.74c0,2.23-1.83,4.04-4.08,4.04h0Z"/><path id="Fill-87" class="cls-22" d="m291.32,229.4c0,.86-.7,1.56-1.56,1.56s-1.56-.7-1.56-1.56.7-1.56,1.56-1.56,1.56.7,1.56,1.56"/><path id="Fill-89" class="cls-21" d="m334.29,210.18h-30.86c-.37,0-.68-.35-.68-.78s.3-.78.68-.78h30.86c.37,0,.68.35.68.78s-.3.78-.68.78"/><path id="Fill-91" class="cls-21" d="m334.29,214.85h-30.86c-.37,0-.68-.35-.68-.78s.3-.78.68-.78h30.86c.37,0,.68.35.68.78s-.3.78-.68.78"/><path id="Fill-93" class="cls-21" d="m334.29,219.01h-30.86c-.37,0-.68-.35-.68-.78s.3-.78.68-.78h30.86c.37,0,.68.35.68.78s-.3.78-.68.78"/><path id="Fill-95" class="cls-21" d="m334.29,223.69h-30.86c-.37,0-.68-.35-.68-.78s.3-.78.68-.78h30.86c.37,0,.68.35.68.78s-.3.78-.68.78"/><path id="Fill-97" class="cls-21" d="m334.29,228.36h-30.86c-.37,0-.68-.35-.68-.78s.3-.78.68-.78h30.86c.37,0,.68.35.68.78s-.3.78-.68.78"/><path id="Fill-99" class="cls-23" d="m338.3,270.98h-31.08c-.75,0-1.35-.6-1.35-1.35v-15.49c0-.74.6-1.35,1.35-1.35h31.08c.75,0,1.35.6,1.35,1.35v15.49c0,.74-.6,1.35-1.35,1.35"/><path id="Fill-101" class="cls-9" d="m327.69,261.62c0,2.58-2.09,4.68-4.68,4.68s-4.68-2.09-4.68-4.68,2.09-4.68,4.68-4.68,4.68,2.09,4.68,4.68"/><path id="Fill-103" class="cls-23" d="m325,262.11l-2.5,2.54c-.2.2-.53.06-.53-.22v-5.08c0-.28.33-.42.53-.22l2.5,2.54c.12.12.12.32,0,.45"/><path id="Fill-105" class="cls-25" d="m322.18,259.54h-36.27c-.75,0-1.35-.61-1.35-1.37v-18.56c0-.76.61-1.37,1.35-1.37h36.27c.75,0,1.35.61,1.35,1.37v18.56c0,.76-.61,1.37-1.35,1.37"/><path id="Fill-107" class="cls-9" d="m309.51,248.89c0,3.01-2.44,5.46-5.46,5.46s-5.46-2.44-5.46-5.46,2.44-5.46,5.46-5.46,5.46,2.44,5.46,5.46"/><path id="Fill-109" class="cls-25" d="m306.28,248.87l-2.92,2.77c-.23.22-.62.06-.62-.24v-5.55c0-.31.39-.46.62-.24l2.92,2.77c.14.13.14.35,0,.49"/></g></g><rect class="cls-3" x="71.22" y="118.18" width="69.39" height="29.12"/><g><path id="Rectangle_Copy" class="cls-27" d="m71.29,117.67h69.32v30.14h-69.32v-30.14Zm68.78,29.63v-29.12h-68.24v29.12h68.24Z"/><rect id="Rectangle_2" class="cls-5" x="85.54" y="133.01" width="10.22" height="10.76"/><rect id="Rectangle_3" class="cls-10" x="85.86" y="122.25" width="10.22" height="10.76"/><rect id="Rectangle_4" class="cls-1" x="95.66" y="122.25" width="10.22" height="10.76"/><rect id="Rectangle_5" class="cls-6" x="105.89" y="122.25" width="10.22" height="10.76"/><rect id="Rectangle_6" class="cls-8" x="75.75" y="133.01" width="10.12" height="10.76"/><rect id="Rectangle_7" class="cls-7" x="75.75" y="122.25" width="10.12" height="10.86"/><rect id="Rectangle_8" class="cls-17" x="95.66" y="133.01" width="10.22" height="10.76"/><rect id="Rectangle_9" class="cls-14" x="116.11" y="133.01" width="10.22" height="10.76"/><rect id="Rectangle_10" class="cls-11" x="125.8" y="122.25" width="10.22" height="10.76"/><rect id="Rectangle_11" class="cls-15" x="126.34" y="133.01" width="9.69" height="10.76"/><rect id="Rectangle_12" class="cls-16" x="116.11" y="122.25" width="10.22" height="10.76"/><rect id="Rectangle_13" class="cls-18" x="105.89" y="133.01" width="10.22" height="10.76"/></g></svg>