<?xml version="1.0" encoding="UTF-8"?><svg id="Layer_1" xmlns="http://www.w3.org/2000/svg" viewBox="0 0 512 512"><defs><style>.cls-1,.cls-2{fill:#edf4f7;}.cls-3,.cls-4{fill:#d0eaf4;}.cls-5{fill:#f9dc4a;}.cls-5,.cls-6,.cls-7,.cls-8,.cls-9,.cls-4,.cls-10,.cls-11,.cls-12,.cls-13,.cls-2,.cls-14,.cls-15,.cls-16{fill-rule:evenodd;}.cls-6{fill:#f9c818;}.cls-7{fill:#56acf6;}.cls-8{fill:#08aeb5;}.cls-9{fill:#abf0cf;}.cls-10{fill:#9fddff;}.cls-11{fill:#b8dde8;}.cls-12{fill:#fff59b;}.cls-13{fill:#fff;}.cls-14{fill:#e93737;}.cls-15{fill:#ffb1ea;}</style></defs><g id="Master_Office_Supplies_Kanban_Board"><g id="Group_955_Copy"><path id="Path" class="cls-10" d="m215.82,353.94s-1.61,19.69-2.54,26.1c-.92,6.41-.46,13.51-6.69,18.31-6.23,4.81-10.51,7.33-10.51,7.33,0,0-2.73,1.76,1.05,2.52,3.78.76,111.78.54,111.78.54,0,0,10.22-.33,7.11-2.43-3.11-2.1-14.44-6.51-16-14.88-1.56-8.38-4.34-37.05-4.34-37.05l-79.88-.43Z"/><path id="Path_2" class="cls-3" d="m213.1,382.78l2.74-28.84h79.19c.48,3.89,1.87,15.11,3.61,28.84,2.16,17.16,9.09,17.59,13.85,20.77,3.81,2.54,3.41,4.13,2.74,4.62-38.89.82-117.12,1.96-118.85,0-2.16-2.45,2.88-4.76,9.81-9.09,5.54-3.46,6.92-12.31,6.92-16.3Z"/><path id="Shape" class="cls-16" d="m215.38,353.45h80.1l.06.5c.48,3.88,1.87,15.06,3.6,28.75,1.07,8.48,3.31,12.73,5.78,15.25,1.24,1.27,2.57,2.12,3.89,2.86.42.23.85.46,1.27.69.9.48,1.8.95,2.63,1.5,1.93,1.28,2.91,2.4,3.27,3.34.38,1,.05,1.8-.51,2.2l-.14.1h-.18c-19.42.41-48.66.9-73.26,1.04-12.3.07-23.44.06-31.62-.1-4.09-.08-7.44-.19-9.83-.35-1.19-.08-2.16-.16-2.86-.27-.35-.05-.65-.11-.88-.17-.12-.03-.23-.07-.33-.11-.09-.04-.22-.11-.33-.23-.32-.36-.54-.76-.62-1.19-.08-.44,0-.86.17-1.26.34-.77,1.09-1.49,2.02-2.21,1.27-.97,3.07-2.06,5.15-3.31,1.01-.61,2.08-1.25,3.19-1.95,2.6-1.62,4.27-4.54,5.29-7.62,1.02-3.07,1.35-6.2,1.35-8.14v-.03l2.79-29.29Zm1.05,1.15l-2.68,28.2c0,2.04-.36,5.29-1.41,8.47-1.06,3.19-2.84,6.41-5.77,8.23-1.17.72-2.27,1.39-3.29,2-2.04,1.23-3.75,2.26-4.97,3.19-.92.7-1.46,1.28-1.67,1.77-.1.23-.12.42-.09.59.03.17.12.36.31.59.03.01.08.03.14.05.17.05.41.09.74.14.65.1,1.58.18,2.77.26,2.36.16,5.7.27,9.78.35,8.16.15,19.3.17,31.59.1,24.5-.14,53.6-.63,73.02-1.03.09-.13.16-.36,0-.76-.23-.6-.96-1.55-2.83-2.79-.77-.51-1.59-.94-2.46-1.41-.44-.23-.89-.47-1.36-.73-1.37-.77-2.8-1.68-4.15-3.06-2.71-2.76-5.01-7.28-6.1-15.91-1.66-13.13-3.01-23.96-3.54-28.24h-78.03Z"/><path id="Path_3" class="cls-10" d="m223.55,359.73s-1.61,19.69-2.54,26.1c-.92,6.41-.46,13.51-6.69,18.31-6.23,4.81-10.51,7.33-10.51,7.33,0,0-2.73,1.76,1.05,2.52,3.78.76,111.78.54,111.78.54,0,0,10.22-.33,7.11-2.43-3.11-2.1-14.44-6.51-16-14.88-1.56-8.38-4.34-37.05-4.34-37.05l-79.88-.43Z"/><path id="Path_4" class="cls-1" d="m220.83,388.57l2.74-28.84h79.19c.48,3.89,1.87,15.11,3.61,28.84,2.16,17.16,9.09,17.59,13.85,20.77,3.81,2.54,3.41,4.13,2.74,4.62-38.89.82-117.12,1.96-118.85,0-2.16-2.45,2.88-4.76,9.81-9.09,5.54-3.46,6.92-12.31,6.92-16.3Z"/><path id="Shape_2" class="cls-16" d="m223.11,359.25h80.1l.06.5c.48,3.88,1.87,15.06,3.6,28.75,1.07,8.48,3.31,12.73,5.78,15.25,1.24,1.27,2.57,2.12,3.89,2.86.42.23.85.46,1.27.69.9.48,1.8.95,2.63,1.5,1.93,1.28,2.91,2.4,3.27,3.34.38,1,.05,1.8-.51,2.2l-.14.1h-.18c-19.42.41-48.66.9-73.26,1.04-12.3.07-23.44.06-31.62-.1-4.09-.08-7.44-.19-9.83-.35-1.19-.08-2.16-.16-2.86-.27-.35-.05-.65-.11-.88-.17-.12-.03-.23-.07-.33-.11-.09-.04-.22-.11-.33-.23-.32-.36-.54-.76-.62-1.19-.08-.44,0-.86.17-1.26.34-.77,1.09-1.49,2.02-2.21,1.27-.97,3.07-2.06,5.15-3.31,1.01-.61,2.08-1.25,3.19-1.95,2.6-1.62,4.27-4.54,5.29-7.62,1.02-3.07,1.35-6.2,1.35-8.14v-.03l2.79-29.3Zm1.05,1.15l-2.68,28.2c0,2.04-.36,5.29-1.41,8.47-1.06,3.19-2.84,6.41-5.77,8.23-1.17.72-2.27,1.39-3.29,2-2.04,1.23-3.75,2.26-4.97,3.19-.92.7-1.46,1.28-1.67,1.77-.1.23-.12.42-.09.59.03.17.12.36.31.59.03.01.08.03.14.05.17.05.41.09.74.14.65.1,1.58.18,2.77.26,2.36.16,5.7.27,9.78.35,8.16.15,19.3.17,31.59.1,24.5-.14,53.6-.63,73.02-1.03.09-.13.16-.36,0-.76-.23-.6-.96-1.55-2.83-2.79-.77-.51-1.59-.94-2.46-1.41-.44-.23-.89-.47-1.36-.73-1.37-.77-2.8-1.68-4.15-3.06-2.71-2.76-5.01-7.28-6.1-15.91-1.66-13.13-3.01-23.96-3.54-28.24h-78.03Z"/><path id="Path_5" class="cls-16" d="m304.06,399.1h-69.56v-1.21h69.56v1.21Z"/><path id="Path_6" class="cls-4" d="m426.07,359.49H80.14c-6.38,0-11.55-5.18-11.55-11.56V108.04c0-6.39,5.17-11.56,11.55-11.56h345.93c6.38,0,11.55,5.18,11.55,11.56v239.89c0,6.39-5.18,11.56-11.55,11.56Z"/><path id="Shape_3" class="cls-16" d="m80.14,358.34h345.93c5.74,0,10.4-4.66,10.4-10.41V108.04c0-5.75-4.66-10.41-10.4-10.41H80.14c-5.74,0-10.4,4.66-10.4,10.41v239.89c0,5.75,4.66,10.41,10.4,10.41Zm0,1.15h345.93c6.38,0,11.55-5.18,11.55-11.56V108.04c0-6.39-5.18-11.56-11.55-11.56H80.14c-6.38,0-11.55,5.18-11.55,11.56v239.89c0,6.39,5.17,11.56,11.55,11.56Z"/><path id="Path_7" class="cls-2" d="m431.86,363.84H85.93c-6.38,0-11.55-5.18-11.55-11.56V112.39c0-6.39,5.17-11.56,11.55-11.56h345.93c6.38,0,11.55,5.18,11.55,11.56v239.89c0,6.39-5.18,11.56-11.55,11.56Z"/><path id="Shape_4" class="cls-16" d="m85.93,362.68h345.93c5.74,0,10.4-4.66,10.4-10.41V112.39c0-5.75-4.66-10.41-10.4-10.41H85.93c-5.74,0-10.4,4.66-10.4,10.41v239.89c0,5.75,4.66,10.41,10.4,10.41Zm0,1.15h345.93c6.38,0,11.55-5.18,11.55-11.56V112.39c0-6.39-5.18-11.56-11.55-11.56H85.93c-6.38,0-11.55,5.18-11.55,11.56v239.89c0,6.39,5.17,11.56,11.55,11.56Z"/><path id="Path_8" class="cls-11" d="m86.45,352.49h347.54V115.56H86.45v236.93Z"/><path id="Shape_5" class="cls-16" d="m434,352.49H86.45V115.56h347.54v236.93Zm-1.15-235.77H87.61v234.62h345.23V116.71Z"/><path id="Path_9" class="cls-13" d="m86.45,135.84h347.54v-20.29H86.45v20.29Z"/><path id="Shape_6" class="cls-16" d="m434,135.84H86.45v-20.29h347.54v20.29Zm-1.15-19.13H87.61v17.97h345.23v-17.97Z"/><path id="Path_10" class="cls-13" d="m86.45,144.3h347.54v-10.14H86.45v10.14Z"/><path id="Shape_7" class="cls-16" d="m434,144.3H86.45v-10.14h347.54v10.14Zm-1.15-8.98H87.61v7.83h345.23v-7.83Z"/><path id="Path_11" class="cls-13" d="m268.56,332.92c0,5.2-3.95,9.42-8.82,9.42s-8.82-4.22-8.82-9.42,3.95-9.42,8.82-9.42,8.82,4.22,8.82,9.42Z"/><path id="Shape_8" class="cls-16" d="m259.74,341.18c4.17,0,7.66-3.63,7.66-8.26s-3.49-8.26-7.66-8.26-7.66,3.63-7.66,8.26,3.49,8.26,7.66,8.26Zm0,1.16c4.87,0,8.82-4.22,8.82-9.42s-3.95-9.42-8.82-9.42-8.82,4.22-8.82,9.42,3.95,9.42,8.82,9.42Z"/><path id="Path_12" class="cls-13" d="m113.75,306.84h87.91v-133.32h-87.91v133.32Z"/><path id="Shape_9" class="cls-16" d="m113.02,173.04h89.36v134.28h-89.36v-134.28Zm1.16,1.15v131.98h87.05v-131.98h-87.05Z"/><path id="Path_13" class="cls-15" d="m121.23,216.99h33.33v-31.4h-33.33v31.4Z"/><path id="Shape_10" class="cls-16" d="m120.51,184.87h34.54v32.6h-34.54v-32.6Zm1.15,1.15v30.3h32.23v-30.3h-32.23Z"/><path id="Path_14" class="cls-15" d="m121.23,253.71h33.33v-31.4h-33.33v31.4Z"/><path id="Shape_11" class="cls-16" d="m120.51,221.82h34.54v32.6h-34.54v-32.6Zm1.15,1.15v30.3h32.23v-30.3h-32.23Z"/><path id="Path_15" class="cls-15" d="m160.12,216.99h33.33v-31.4h-33.33v31.4Z"/><path id="Shape_12" class="cls-16" d="m159.63,184.87h34.54v32.6h-34.54v-32.6Zm1.15,1.15v30.3h32.23v-30.3h-32.23Z"/><path id="Path_16" class="cls-15" d="m160.12,253.71h33.33v-31.4h-33.33v31.4Z"/><path id="Shape_13" class="cls-16" d="m159.63,221.82h34.54v32.6h-34.54v-32.6Zm1.15,1.15v30.3h32.23v-30.3h-32.23Z"/><path id="Path_17" class="cls-13" d="m215.18,307.08h88.15v-133.32h-88.15v133.32Z"/><path id="Shape_14" class="cls-16" d="m303.34,307.08h-88.15v-133.32h88.15v133.32Zm-1.15-132.16h-85.85v131.01h85.85v-131.01Z"/><path id="Path_18" class="cls-12" d="m225.09,216.99h33.33v-31.4h-33.33v31.4Z"/><path id="Shape_15" class="cls-16" d="m258.42,216.99h-33.33v-31.4h33.33v31.4Zm-1.15-30.25h-31.03v29.09h31.03v-29.09Z"/><path id="Path_19" class="cls-12" d="m261.8,216.99h33.33v-31.4h-33.33v31.4Z"/><path id="Shape_16" class="cls-16" d="m295.13,216.99h-33.33v-31.4h33.33v31.4Zm-1.15-30.25h-31.03v29.09h31.03v-29.09Z"/><path id="Path_20" class="cls-13" d="m316.86,306.84h87.91v-133.32h-87.91v133.32Z"/><path id="Shape_17" class="cls-16" d="m404.77,306.84h-87.91v-133.32h87.91v133.32Zm-1.15-132.16h-85.61v131.01h85.61v-131.01Z"/><path id="Path_21" class="cls-9" d="m325.07,216.99h33.33v-31.4h-33.33v31.4Z"/><path id="Shape_18" class="cls-16" d="m358.4,216.99h-33.33v-31.4h33.33v31.4Zm-1.15-30.25h-31.03v29.09h31.03v-29.09Z"/><path id="Path_22" class="cls-9" d="m325.07,253.71h33.33v-31.4h-33.33v31.4Z"/><path id="Shape_19" class="cls-16" d="m358.4,253.71h-33.33v-31.4h33.33v31.4Zm-1.15-30.25h-31.03v29.09h31.03v-29.09Z"/><path id="Path_23" class="cls-9" d="m325.07,290.17h33.33v-31.4h-33.33v31.4Z"/><path id="Shape_20" class="cls-16" d="m358.4,290.17h-33.33v-31.4h33.33v31.4Zm-1.15-30.25h-31.03v29.09h31.03v-29.09Z"/><path id="Path_24" class="cls-9" d="m362.27,216.99h33.33v-31.4h-33.33v31.4Z"/><path id="Shape_21" class="cls-16" d="m395.6,216.99h-33.33v-31.4h33.33v31.4Zm-1.15-30.25h-31.03v29.09h31.03v-29.09Z"/><path id="Path_25" class="cls-9" d="m362.27,253.71h33.33v-31.4h-33.33v31.4Z"/><path id="Shape_22" class="cls-16" d="m395.6,253.71h-33.33v-31.4h33.33v31.4Zm-1.15-30.25h-31.03v29.09h31.03v-29.09Z"/><path id="Path_26" class="cls-6" d="m113.02,402.96h78.25v-78.25h-78.25v78.25Z"/><path id="Shape_23" class="cls-16" d="m191.27,402.96h-78.25v-78.25h78.25v78.25Zm-1.16-77.1h-75.94v75.94h75.94v-75.94Z"/><path id="Path_27" class="cls-5" d="m113.03,325.19s-.61,56.66,11.08,68.83h71.75s-5.75,1.07-4.47-68.83h-78.36Z"/><path id="Shape_24" class="cls-16" d="m194.87,392.87c-1.57-3.34-4.37-16.29-3.5-66.53,0-.38.01-.77.02-1.15h-78.36s-.61,56.66,11.08,68.83h71.72s.03,0,.03,0h-.03c-.11,0-.48-.13-.96-1.15Zm-1.26,0c-.52-1.29-1.08-3.4-1.61-6.88-1.28-8.47-2.38-25.47-1.79-59.65h-76.03c0,.36,0,.79,0,1.3,0,1.57.03,3.82.09,6.56.13,5.49.41,12.93,1.07,20.74.65,7.82,1.67,15.98,3.24,22.93.78,3.48,1.7,6.62,2.77,9.26.99,2.43,2.08,4.37,3.27,5.73h68.99Z"/></g><g id="Group"><path id="Path_28" class="cls-14" d="m117.37,126.67c0,1.73-1.35,3.14-3.02,3.14s-3.02-1.41-3.02-3.14,1.35-3.14,3.02-3.14,3.02,1.41,3.02,3.14Z"/><path id="Shape_25" class="cls-16" d="m114.35,128.65c.95,0,1.84-.82,1.84-1.98s-.89-1.98-1.84-1.98-1.84.82-1.84,1.98.89,1.98,1.84,1.98Zm0,1.16c1.67,0,3.02-1.41,3.02-3.14s-1.35-3.14-3.02-3.14-3.02,1.41-3.02,3.14,1.35,3.14,3.02,3.14Z"/><path id="Path_29" class="cls-7" d="m129.44,126.67c0,1.73-1.35,3.14-3.02,3.14s-3.02-1.41-3.02-3.14,1.35-3.14,3.02-3.14,3.02,1.41,3.02,3.14Z"/><path id="Shape_26" class="cls-16" d="m126.43,128.65c.95,0,1.84-.82,1.84-1.98s-.89-1.98-1.84-1.98-1.84.82-1.84,1.98.89,1.98,1.84,1.98Zm0,1.16c1.67,0,3.02-1.41,3.02-3.14s-1.35-3.14-3.02-3.14-3.02,1.41-3.02,3.14,1.35,3.14,3.02,3.14Z"/><path id="Path_30" class="cls-8" d="m142,126.67c0,1.73-1.35,3.14-3.02,3.14s-3.02-1.41-3.02-3.14,1.35-3.14,3.02-3.14,3.02,1.41,3.02,3.14Z"/><path id="Shape_27" class="cls-16" d="m138.98,128.65c.95,0,1.84-.82,1.84-1.98s-.89-1.98-1.84-1.98-1.84.82-1.84,1.98.89,1.98,1.84,1.98Zm0,1.16c1.67,0,3.02-1.41,3.02-3.14s-1.35-3.14-3.02-3.14-3.02,1.41-3.02,3.14,1.35,3.14,3.02,3.14Z"/></g></g></svg>