<?xml version="1.0" encoding="utf-8"?>
<!-- Generator: Adobe Illustrator 27.2.0, SVG Export Plug-In . SVG Version: 6.00 Build 0)  -->
<svg version="1.1" id="Layer_1" xmlns="http://www.w3.org/2000/svg" xmlns:xlink="http://www.w3.org/1999/xlink" x="0px" y="0px"
	 viewBox="0 0 51.1 39.6" style="enable-background:new 0 0 51.1 39.6;" xml:space="preserve">
<style type="text/css">
	.st0{fill:#9187F6;}
	.st1{fill:#8313DD;}
	.st2{fill:none;}
</style>
<path class="st0" d="M20.1,5.9c0.6-0.5,1.4-0.5,2,0.1c1.4,1.4,2.9,2.9,4.3,4.3l-2.1,2.2l-2.7-2.7c-0.3-0.3-0.7-0.3-1.1-0.1
	c0,0,0,0-0.1,0.1c-3.2,3.1-6.3,6.3-9.5,9.5c-0.3,0.3-0.4,0.8-0.1,1.1c0,0,0.1,0.1,0.1,0.1c3,3,6,6,9,9c0.2,0.3,0.5,0.5,0.8,0.7
	c0.3,0.1,0.7,0,0.9-0.2l2.6-2.6l2.1,2.2l-4,4c-0.3,0.3-0.6,0.5-0.9,0.7c-0.6,0.2-1.2,0-1.6-0.4c-4.2-4.2-8.5-8.5-12.7-12.7
	c-0.6-0.6-0.6-1.6,0-2.2c0,0,0,0,0,0C11.5,14.4,15.8,10.2,20.1,5.9L20.1,5.9z"/>
<path class="st1" d="M30.7,5.9c0.6-0.6,1.6-0.6,2.2,0c0,0,0,0,0,0l12.7,12.7c0.4,0.4,0.6,1,0.4,1.6c-0.2,0.4-0.5,0.7-0.8,1l-11.9,12
	c-0.3,0.3-0.6,0.6-1,0.8c-0.6,0.2-1.2,0-1.6-0.4l-4.3-4.2l-2.1-2.1l-6.4-6.4c-0.6-0.6-0.6-1.6,0-2.1c0,0,0,0,0,0l6.3-6.3l2.2-2.2
	C27.8,8.8,29.3,7.3,30.7,5.9L30.7,5.9z"/>
<rect class="st2" width="190.8" height="39.6"/>
</svg>
